# xmcd
# Track frame offsets:
# 150
# 12971
# 31053
# 45477
# 59000
# 71307
# 82950
# 99182
# 114133
# 128285
# 148115
# 166615
# 178556
# 192584
# 208931
# 229194
# 240970
# 258783
# 271628
# 291041
#
# Disc length: 4120 seconds
# Revision: 0
# Processed by: cddbd v1.5.2PL0 Copyright (c) Steve Scherf et al.
# Submitted via: VisiTrax 2.11.1.266 - For more info visit www.synapsa.com
#
DISCID=f9101614
DTITLE=Various Artist - NFS 146 Country Singles
DYEAR=2011
DGENRE=Country
TTITLE0=Chester Johnny and The Lonesome Hearts - Cute Boot Scooter
TTITLE1=Taylor-Knight Caroline - Love is an Action
TTITLE2=Mayers, Danny - Take Me Away
TTITLE3=Poulton, Amber Joy - Break Even
TTITLE4=Green, Anthony - Lonesome Longtime Gone
TTITLE5=Leaping Lizards, The - Silver Eyes
TTITLE6=Sich, George - I Got a Little Drunk
TTITLE7=Bell, Kaylee - Love was Just a Fairytale
TTITLE8=Sampson, Ryan - Marilyn Monroe was a Size 14
TTITLE9=Bobkatz, The - In the Coals
TTITLE10=Meier, Markus - My Patch of Dirt
TTITLE11=Thomas, Chris E and The Free Range - Never Gonna Make it Home
TTITLE12=McIntyre, Doug - Australian Son
TTITLE13=Lucas, Mark and The Dead Setters - Whitewall Tyres
TTITLE14=Halloran, Amanda - Let it Rain
TTITLE15=Dickens, Luke - Underdog
TTITLE16=Duke Wilde Band - The Band Plays
TTITLE17=O'Shea, Fiona - Restless a Little Reckless
TTITLE18=Mahony, Andrew - Best Things in Life
TTITLE19=Berry, Jay Scott - Please come to Boston
EXTD=
EXTT0=
EXTT1=
EXTT2=
EXTT3=
EXTT4=
EXTT5=
EXTT6=
EXTT7=
EXTT8=
EXTT9=
EXTT10=
EXTT11=
EXTT12=
EXTT13=
EXTT14=
EXTT15=
EXTT16=
EXTT17=
EXTT18=
EXTT19=
PLAYORDER=
